<?xml version="1.0" encoding="UTF-8"?>
<svg width="47px" height="43px" viewBox="0 0 47 43" version="1.1" xmlns="http://www.w3.org/2000/svg" xmlns:xlink="http://www.w3.org/1999/xlink">
    <title>编组</title>
    <defs>
        <filter x="-51.4%" y="-58.7%" width="202.7%" height="217.4%" filterUnits="objectBoundingBox" id="filter-1">
            <feOffset dx="0" dy="3" in="SourceAlpha" result="shadowOffsetOuter1"></feOffset>
            <feGaussianBlur stdDeviation="2" in="shadowOffsetOuter1" result="shadowBlurOuter1"></feGaussianBlur>
            <feColorMatrix values="0 0 0 0 0.75760818   0 0 0 0 0.748461319   0 0 0 0 1  0 0 0 1 0" type="matrix" in="shadowBlurOuter1" result="shadowMatrixOuter1"></feColorMatrix>
            <feMerge>
                <feMergeNode in="shadowMatrixOuter1"></feMergeNode>
                <feMergeNode in="SourceGraphic"></feMergeNode>
            </feMerge>
        </filter>
        <polygon id="path-2" points="0 0 26.2856508 0 26.2856508 23 0 23"></polygon>
    </defs>
    <g id="公众号" stroke="none" stroke-width="1" fill="none" fill-rule="evenodd">
        <g id="报修问题" transform="translate(-282.000000, -335.000000)">
            <g id="编组" filter="url(#filter-1)" transform="translate(292.000000, 345.000000)">
                <g>
                    <mask id="mask-3" fill="white">
                        <use xlink:href="#path-2"></use>
                    </mask>
                    <g id="Clip-2"></g>
                    <path d="M13.1428254,19.3034531 C9.96716398,19.3034531 7.39290871,16.7293829 7.39290871,13.5535364 C7.39290871,10.377875 9.96716398,7.80361969 13.1428254,7.80361969 C16.3184868,7.80361969 18.8927421,10.377875 18.8927421,13.5535364 C18.8927421,16.7293829 16.3184868,19.3034531 13.1428254,19.3034531 M24.6428439,4.10707278 L18.5847274,4.10707278 L18.2511682,1.43896927 C18.1484349,0.616917953 17.4494784,-3.70626298e-05 16.6207633,-3.70626298e-05 L9.66488751,-3.70626298e-05 C8.83617241,-3.70626298e-05 8.13703082,0.616917953 8.03429754,1.43896927 L7.70073833,4.10707278 L1.6428069,4.10707278 C1.20706972,4.10707278 0.789102627,4.28033106 0.481087902,4.58834579 C0.172888073,4.89636051 0,5.31432761 0,5.74987968 L0,21.3571931 C0,22.2645778 0.735422176,23 1.6428069,23 L24.6428439,23 C25.5500435,23 26.2856508,22.2645778 26.2856508,21.3571931 L26.2856508,5.74987968 C26.2856508,4.84268006 25.5500435,4.10707278 24.6428439,4.10707278" id="Fill-1" fill="#7A76E4" mask="url(#mask-3)"></path>
                </g>
                <path d="M13.1428254,17.6608313 C10.8743636,17.6608313 9.03571561,15.8218131 9.03571561,13.5535364 C9.03571561,11.2852597 10.8743636,9.44642659 13.1428254,9.44642659 C15.4111021,9.44642659 17.2499352,11.2852597 17.2499352,13.5535364 C17.2499352,15.8218131 15.4111021,17.6608313 13.1428254,17.6608313" id="Fill-3" fill="#7A76E4"></path>
                <path d="M3.4418054,3.42292469 C2.98792793,3.42292469 2.6203094,3.05512105 2.6203094,2.60142869 C2.6203094,2.14773633 2.98792793,1.77993269 3.4418054,1.77993269 L5.0994207,1.77993269 C5.55311306,1.77993269 5.9209167,2.14773633 5.9209167,2.60142869 C5.9209167,3.05512105 5.55311306,3.42292469 5.0994207,3.42292469 L3.4418054,3.42292469 Z" id="Fill-5" fill="#7A76E4"></path>
            </g>
        </g>
    </g>
</svg>