<?xml version="1.0" encoding="UTF-8"?>
<svg width="36px" height="34px" viewBox="0 0 36 34" version="1.1" xmlns="http://www.w3.org/2000/svg" xmlns:xlink="http://www.w3.org/1999/xlink">
    <title>saoma</title>
    <defs>
        <polygon id="path-1" points="0 0 36 0 36 2.57113439 0 2.57113439"></polygon>
    </defs>
    <g id="公众号" stroke="none" stroke-width="1" fill="none" fill-rule="evenodd">
        <g id="扫描设备二维码" transform="translate(-169.000000, -489.000000)">
            <g id="saoma" transform="translate(169.000000, 489.000000)">
                <g id="编组" transform="translate(0.000000, 15.426957)">
                    <mask id="mask-2" fill="white">
                        <use xlink:href="#path-1"></use>
                    </mask>
                    <g id="Clip-2"></g>
                    <path d="M34.7145584,2.57113439 L1.28247828,2.57113439 C0.570671191,2.57113439 -0.00301357784,1.99744962 -0.00301357784,1.28544163 C-0.00301357784,0.573684769 0.570671191,0 1.28247828,0 L34.7145584,0 C35.4263655,0 36,0.573684769 36,1.28544163 C36,1.99744962 35.4263655,2.57113439 34.7145584,2.57113439 Z" id="Fill-1" fill="#FFFFFF" mask="url(#mask-2)"></path>
                </g>
                <path d="M30.8577312,33.4318792 L23.1373968,33.4318792 C22.4253888,33.4318792 21.8517041,32.8581944 21.8517041,32.1463873 C21.8517041,31.4344296 22.4253888,30.8607448 23.1373968,30.8607448 L30.8508502,30.8607448 C31.5628582,30.8607448 32.1363421,30.28706 32.1363421,29.5752529 L32.1363421,23.1472914 C32.1363421,22.4354843 32.7099766,21.8617996 33.4219846,21.8617996 C34.1339926,21.8617996 34.7074981,22.4354843 34.7074981,23.1472914 L34.7074981,29.5752529 C34.7145584,31.6971131 32.9795914,33.4318792 30.8577312,33.4318792 Z" id="Fill-3" fill="#FFFFFF"></path>
                <path d="M11.5670661,33.4318792 L5.13930543,33.4318792 C3.01056426,33.4318792 1.28247828,31.7039941 1.28247828,29.5752529 L1.28247828,23.1472914 C1.28247828,22.4354843 1.85616305,21.8617996 2.56812081,21.8617996 C3.2801288,21.8617996 3.85361267,22.4354843 3.85361267,23.1472914 L3.85361267,29.5752529 C3.85361267,30.28706 4.43437934,30.8607448 5.13930543,30.8607448 L11.5670661,30.8607448 C12.2790741,30.8607448 12.8527588,31.4344296 12.8527588,32.1463873 C12.8527588,32.8581944 12.2790741,33.4318792 11.5670661,33.4318792 Z" id="Fill-4" fill="#FFFFFF"></path>
                <path d="M2.56812081,11.5701299 C1.85616305,11.5701299 1.28247828,10.996646 1.28247828,10.284638 L1.28247828,3.85662624 C1.28247828,1.72793531 3.01056426,0 5.13930543,0 L11.5670661,0 C12.2790741,0 12.8527588,0.573684769 12.8527588,1.28549185 C12.8527588,1.99749985 12.2790741,2.57118462 11.5670661,2.57118462 L5.13930543,2.57118462 C4.43437934,2.57118462 3.85361267,3.15170016 3.85361267,3.85662624 L3.85361267,10.284638 C3.85361267,10.996646 3.2801288,11.5701299 2.56812081,11.5701299 Z" id="Fill-5" fill="#FFFFFF"></path>
                <path d="M33.4288656,11.5701299 C32.7170585,11.5701299 32.1433738,10.996646 32.1433738,10.284638 L32.1433738,3.85662624 C32.1433738,3.15170016 31.569689,2.57118462 30.8577312,2.57118462 L23.1373968,2.57118462 C22.4253888,2.57118462 21.8517041,1.99749985 21.8517041,1.28549185 C21.8517041,0.573684769 22.4253888,0 23.1373968,0 L30.8508502,0 C32.9795914,0 34.7075413,1.72793531 34.7075413,3.85662624 L34.7075413,10.284638 C34.7145584,10.996646 34.1408736,11.5701299 33.4288656,11.5701299 Z" id="Fill-6" fill="#FFFFFF"></path>
            </g>
        </g>
    </g>
</svg>